<?xml version="1.0" encoding="UTF-8"?>
<svg id="_レイヤー_2" data-name="レイヤー 2" xmlns="http://www.w3.org/2000/svg" viewBox="0 0 72.75 72.75">
  <defs>
    <style>
      .cls-1 {
        fill: #fff;
      }

      .cls-1, .cls-2 {
        stroke-width: 0px;
      }

      .cls-2 {
        fill: #4b95d1;
      }
    </style>
  </defs>
  <g id="_レイヤー_1-2" data-name="レイヤー 1">
    <rect class="cls-1" width="72.75" height="72.75"/>
    <g>
      <path class="cls-2" d="m45.53,48.9c-.26,1.11-.5,2.24-.79,3.34-1.03,3.91-4.07,6.54-7.85,6.81-3.89.28-7.21-1.87-8.69-5.63-1.86-4.72,1.42-9.98,6.5-10.09,6.81-.16,13.63-.03,20.44-.07,5.51-.03,8.14-2.44,8.14-7.32,0-4.86-2.65-7.23-8.17-7.29-3.16-.03-6.31,0-10.25,0,3.72-6.54,4.17-12.06-1.95-16.3-4.49-3.11-9.31-3.01-13.48.14-5.73,4.32-5.57,9.65-1.91,15.79H7.83c2.2-6.27,5.46-11.39,10.5-15.15,13.37-9.98,31.39-7.85,41.3,5.42,8.74,11.7,8.42,25.13-.42,36.01-9.58,11.78-24.34,14.36-36.67,7.62-10.03-5.49-14.87-14.02-15.78-25.13-.24-2.94.8-4.24,3.96-4.21,14.74.11,29.49.05,44.23.05,2.42,0,4.75.4,4.64,3.44-.1,2.77-2.5,2.67-4.47,2.69-6.32.06-12.64-.09-18.95.09-6.13.17-10.71,4.88-11.28,11.23-.51,5.64,3.71,11.46,9.22,12.73,7.02,1.61,14.52-5.26,13.46-12.37-.09-.63-.6-1.19-.91-1.79-.37,0-.75,0-1.12,0Z"/>
      <path class="cls-2" d="m28.11,20.73c0-4.55,4.05-8.68,8.41-8.59,4.31.09,8.04,3.98,8.11,8.46.07,4.63-3.74,8.7-8.2,8.74-4.45.04-8.34-3.98-8.33-8.61Z"/>
    </g>
  </g>
</svg>